<svg width="18" height="22" viewBox="0 0 18 22" fill="none" xmlns="http://www.w3.org/2000/svg">
<path d="M7.81875 17.6L14.175 11.385L12.5437 9.79L7.79063 14.4375L5.42812 12.1275L3.825 13.695L7.81875 17.6ZM2.25 22C1.63125 22 1.10175 21.7848 0.6615 21.3543C0.22125 20.9238 0.00075 20.4057 0 19.8V2.2C0 1.595 0.2205 1.07727 0.6615 0.6468C1.1025 0.216333 1.632 0.000733333 2.25 0H11.25L18 6.6V19.8C18 20.405 17.7799 20.9231 17.3396 21.3543C16.8994 21.7855 16.3695 22.0007 15.75 22H2.25ZM10.125 7.7H15.75L10.125 2.2V7.7Z" fill="white"/>
</svg>
