<svg width="22" height="20" viewBox="0 0 22 20" fill="none" xmlns="http://www.w3.org/2000/svg">
<path d="M5.02552 19.6896C4.82948 19.4923 4.73147 19.2413 4.73147 18.9364C4.73147 18.6316 4.82948 18.3805 5.02552 18.1832L10.1312 13.0188C10.5411 12.6063 11.049 12.4001 11.6549 12.4001C12.2608 12.4001 12.7687 12.6063 13.1786 13.0188L15.3973 15.2513L20.1823 10.4365C20.3961 10.2214 20.6456 10.1138 20.9307 10.1138C21.2159 10.1138 21.4654 10.2214 21.6792 10.4365C21.8931 10.6517 22 10.9074 22 11.2037C22 11.4999 21.8931 11.7553 21.6792 11.9697L16.921 16.7845C16.5111 17.197 16.0079 17.4032 15.4112 17.4032C14.8146 17.4032 14.311 17.197 13.9004 16.7845L11.6549 14.5251L6.52248 19.6896C6.32645 19.8868 6.08159 19.9901 5.7879 19.9994C5.49421 20.0087 5.24008 19.9055 5.02552 19.6896ZM2.13852 19.3668C1.55043 19.3668 1.04716 19.1563 0.628724 18.7352C0.210288 18.3142 0.000712839 17.8074 0 17.2149V2.15186C0 1.5601 0.209575 1.0537 0.628724 0.632648C1.04787 0.2116 1.55114 0.000717288 2.13852 0H17.1081C17.6962 0 18.1999 0.210883 18.619 0.632648C19.0382 1.05441 19.2474 1.56082 19.2467 2.15186V6.45559C19.2467 6.76044 19.144 7.01615 18.9387 7.22273C18.7334 7.42931 18.4796 7.53224 18.1774 7.53152H2.13852V19.3668ZM2.13852 5.37966H17.1081V2.15186H2.13852V5.37966Z" fill="white"/>
</svg>
