<svg width="54" height="8" viewBox="0 0 54 8" fill="none" xmlns="http://www.w3.org/2000/svg">
<path d="M1.7978 8H0V0H0.980069L6.09687 5.06555V0H7.89467V8H6.9146L1.7978 2.94003V8Z" fill="white"/>
<path d="M9.52411 0H15.5909V1.53975H11.3279V2.85635H14.5808V4.37936H11.3279V6.46025H15.5909V8H9.52411V0Z" fill="white"/>
<path d="M16.2523 0.0055788H18.1162L19.5833 5.32218L21.2909 0.0055788H22.8122L24.4777 5.31102L25.9388 0.0055788H27.8087L25.5058 8H23.7742L22.0425 2.85635L20.2628 8H18.5552L16.2523 0.0055788Z" fill="white"/>
<path d="M28.2957 0H35.7695V1.54533H32.9315V8H31.1277V1.54533H28.2957V0Z" fill="white"/>
<path d="M44.8968 4C44.8968 6.24826 43.0328 8 40.5015 8C37.9762 8 36.1122 6.24826 36.1122 4C36.1122 1.75732 37.9762 0 40.5015 0C43.0328 0 44.8968 1.75732 44.8968 4ZM43.0509 4C43.0509 2.62204 42.0528 1.53417 40.5015 1.53417C38.9562 1.53417 37.9581 2.62204 37.9581 4C37.9581 5.38354 38.9562 6.46025 40.5015 6.46025C42.0528 6.46025 43.0509 5.38354 43.0509 4Z" fill="white"/>
<path d="M47.9031 8H46.1053V0H47.0854L52.2022 5.06555V0H54V8H53.0199L47.9031 2.94003V8Z" fill="white"/>
</svg>
