<svg width="18" height="16" viewBox="0 0 18 16" fill="none" xmlns="http://www.w3.org/2000/svg">
<path d="M17.6616 3.33927L9.8154 15.519C9.67099 15.742 9.44446 15.9026 9.18235 15.9679C8.92023 16.0332 8.64243 15.9981 8.406 15.8699C8.2492 15.7843 8.1168 15.6619 8.0208 15.5138L0.328504 3.33401C0.112986 2.99267 -0.000762387 2.59957 3.84569e-06 2.19876C0.00971831 1.60703 0.259844 1.04323 0.695499 0.631053C1.13115 0.21888 1.71675 -0.00799294 2.3238 0.000215215H15.687C16.9623 0.000215215 18 0.981052 18 2.1935C18 2.59706 17.883 2.99361 17.6607 3.33927M2.2167 2.9322L7.9407 11.5343V2.06453H2.8152C2.223 2.06453 1.9575 2.44704 2.2176 2.9322M10.0584 11.5343L15.7824 2.9322C16.0461 2.44704 15.7761 2.06453 15.1839 2.06453H10.0584V11.5343Z" fill="white"/>
</svg>
