<svg width="17" height="13" viewBox="0 0 17 13" fill="none" xmlns="http://www.w3.org/2000/svg">
<mask id="path-1-inside-1_1_414" fill="white">
<path fill-rule="evenodd" clip-rule="evenodd" d="M16.3665 0.298611C16.5117 0.437121 16.5988 0.630842 16.6088 0.837188C16.6188 1.04353 16.5507 1.24561 16.4196 1.399L6.56163 12.9024L0.600781 6.8947C0.466934 6.75027 0.391452 6.5566 0.390258 6.35453C0.389064 6.15247 0.462252 5.95781 0.594383 5.81163C0.726513 5.66545 0.907255 5.57917 1.09848 5.571C1.2897 5.56282 1.47646 5.63339 1.61935 5.76782L6.48339 10.6697L15.325 0.353942C15.3901 0.278023 15.4687 0.216386 15.5563 0.172554C15.644 0.128722 15.7389 0.103555 15.8358 0.0984888C15.9326 0.0934226 16.0295 0.108558 16.1208 0.143029C16.2121 0.177501 16.2961 0.230633 16.3679 0.29939"/>
</mask>
<path fill-rule="evenodd" clip-rule="evenodd" d="M16.3665 0.298611C16.5117 0.437121 16.5988 0.630842 16.6088 0.837188C16.6188 1.04353 16.5507 1.24561 16.4196 1.399L6.56163 12.9024L0.600781 6.8947C0.466934 6.75027 0.391452 6.5566 0.390258 6.35453C0.389064 6.15247 0.462252 5.95781 0.594383 5.81163C0.726513 5.66545 0.907255 5.57917 1.09848 5.571C1.2897 5.56282 1.47646 5.63339 1.61935 5.76782L6.48339 10.6697L15.325 0.353942C15.3901 0.278023 15.4687 0.216386 15.5563 0.172554C15.644 0.128722 15.7389 0.103555 15.8358 0.0984888C15.9326 0.0934226 16.0295 0.108558 16.1208 0.143029C16.2121 0.177501 16.2961 0.230633 16.3679 0.29939" fill="black"/>
<path d="M16.4196 1.399L17.1789 2.04971L17.1798 2.04874L16.4196 1.399ZM6.56163 12.9024L5.85176 13.6067L6.61542 14.3764L7.32095 13.5531L6.56163 12.9024ZM0.600781 6.8947L-0.132686 7.57443L-0.121097 7.58693L-0.109089 7.59903L0.600781 6.8947ZM1.61935 5.76782L2.32919 5.06346L2.31708 5.05125L2.30455 5.03947L1.61935 5.76782ZM6.48339 10.6697L5.77355 11.374L6.53715 12.1436L7.24266 11.3205L6.48339 10.6697ZM15.325 0.353942L16.0843 1.00471L16.0843 1.0047L15.325 0.353942ZM15.6762 1.0222C15.6297 0.977832 15.612 0.927079 15.61 0.885427L17.6076 0.78895C17.5857 0.334606 17.3936 -0.103591 17.0567 -0.424976L15.6762 1.0222ZM15.61 0.885427C15.608 0.843923 15.6206 0.794672 15.6595 0.749257L17.1798 2.04874C17.4808 1.69655 17.6296 1.24315 17.6076 0.78895L15.61 0.885427ZM15.6603 0.748286L5.8023 12.2517L7.32095 13.5531L17.1789 2.04971L15.6603 0.748286ZM7.2715 12.1981L1.31065 6.19037L-0.109089 7.59903L5.85176 13.6067L7.2715 12.1981ZM1.33425 6.21498C1.3752 6.25917 1.39 6.30789 1.39024 6.34863L-0.609725 6.36044C-0.607097 6.8053 -0.441334 7.24137 -0.132686 7.57443L1.33425 6.21498ZM1.39024 6.34863C1.39048 6.38934 1.37629 6.43788 1.33624 6.48219L-0.147478 5.14108C-0.451782 5.47774 -0.612352 5.9156 -0.609725 6.36044L1.39024 6.34863ZM1.33624 6.48219C1.29468 6.52817 1.22634 6.56645 1.14119 6.57009L1.05577 4.57191C0.588171 4.5919 0.158347 4.80273 -0.147478 5.14108L1.33624 6.48219ZM1.14119 6.57009C1.05574 6.57374 0.981996 6.54118 0.934147 6.49617L2.30455 5.03947C1.97092 4.7256 1.52367 4.55191 1.05577 4.57191L1.14119 6.57009ZM0.90951 6.47218L5.77355 11.374L7.19323 9.96532L2.32919 5.06346L0.90951 6.47218ZM7.24266 11.3205L16.0843 1.00471L14.5657 -0.296831L5.72412 10.0189L7.24266 11.3205ZM16.0843 1.0047C16.0645 1.02784 16.0376 1.04992 16.0036 1.06693L15.109 -0.721821C14.8997 -0.617146 14.7157 -0.471799 14.5657 -0.296817L16.0843 1.0047ZM16.0036 1.06693C15.9695 1.08402 15.9301 1.09492 15.888 1.09712L15.7835 -0.900146C15.5478 -0.887814 15.3185 -0.826578 15.109 -0.721821L16.0036 1.06693ZM15.888 1.09712C15.8459 1.09933 15.8048 1.09262 15.7676 1.07858L16.474 -0.792524C16.2542 -0.875501 16.0193 -0.91248 15.7835 -0.900146L15.888 1.09712ZM15.7676 1.07858C15.7306 1.0646 15.7001 1.04438 15.6766 1.0219L17.0593 -0.423124C16.8921 -0.583116 16.6936 -0.709603 16.474 -0.792524L15.7676 1.07858Z" fill="black" mask="url(#path-1-inside-1_1_414)"/>
</svg>
