<svg width="41" height="41" viewBox="0 0 41 41" fill="none" xmlns="http://www.w3.org/2000/svg">
<circle cx="20.5" cy="20.5" r="20.5" fill="#2BA8FA"/>
<path d="M29.6428 17.548L21.3607 30.489C21.2083 30.7259 20.9692 30.8966 20.6925 30.9659C20.4158 31.0352 20.1226 30.998 19.873 30.8618C19.7075 30.7708 19.5677 30.6407 19.4664 30.4834L11.3468 17.5424C11.1193 17.1797 10.9992 16.762 11 16.3362C11.0103 15.7075 11.2743 15.1084 11.7341 14.6705C12.194 14.2326 12.8121 13.9915 13.4529 14.0002H27.5585C28.9046 14.0002 30 15.0424 30 16.3306C30 16.7594 29.8765 17.1807 29.6418 17.548M13.3399 17.1155L19.3819 26.2551V16.1936H13.9716C13.3465 16.1936 13.0663 16.6 13.3408 17.1155M21.6172 26.2551L27.6592 17.1155C27.9375 16.6 27.6525 16.1936 27.0275 16.1936H21.6172V26.2551Z" fill="white"/>
</svg>
